<svg height="340pt" preserveAspectRatio="xMidYMid meet" viewBox="0 0 269 340" width="269pt" xmlns="http://www.w3.org/2000/svg"><g transform="matrix(.1 0 0 -.1 0 340)"><path d="m877 3203c-4-3-7-72-7-152v-146l-202-195-201-194 5-320c5-293 7-321 24-333 28-21 63-16 74 10 5 12 14 117 19 232 5 116 15 227 21 248 8 26 42 70 111 142 101 104 132 126 151 107 20-20-2-58-97-167-76-88-95-116-95-141 0-39 22-58 65-58 24 0 46 12 86 44 78 66 247 257 278 315l26 50 3 283 3 282h-129c-71 0-132-3-135-7z"/><path d="m1271 3103c0-60 4-185 8-278 11-218 17-232 185-404 182-187 216-206 273-157 27 24 27 24 11 57-9 19-59 84-112 144-53 61-96 115-96 121 0 14 21 34 37 34 18 0 162-139 214-206l42-55 9-212c10-241 19-277 67-277 54 0 56 9 56 289 0 141-4 283-9 316-8 57-11 63-80 131-39 38-131 126-203 194l-133 123v144 143h-135-135z"/><path d="m1000 2237c-112-63-205-118-207-123-4-11 148-100 315-185l104-52 71 38c248 131 347 186 347 194 0 11-402 241-421 241-2 0-96-51-209-113z"/><path d="m721 1878c1-73 4-184 8-247l6-114 199-113c109-63 202-114 207-114 6 0 8 104 7 252l-3 251-45 24c-25 13-106 56-180 95s-144 77-155 84c-42 30-45 22-44-118z"/><path d="m1605 1971c-38-21-131-70-205-109l-135-70-3-257-2-257 32 20c18 11 69 39 112 62 44 23 125 68 180 100l101 57 3 247c1 135-1 246-5 246-5-1-39-18-78-39z"/><path d="m480 1631c-6-12-10-135-10-330v-311l177-172c97-95 190-185 205-200l28-26v-141-141h132 131l-6 258c-6 288-12 319-77 407-21 28-92 103-158 168-114 109-124 117-161 117-42 0-71-20-71-49 0-18 27-55 86-121 85-94 124-146 124-166 0-27-31-40-58-25-21 11-138 133-196 204l-39 48-9 221c-10 242-18 278-63 278-14 0-29-8-35-19z"/><path d="m1859 1633c-11-12-16-72-20-238-5-191-9-225-25-251-59-94-200-240-241-250-30-8-47 7-38 35 6 19 85 124 111 146 37 33 94 120 94 145 0 49-76 57-132 13-88-71-263-267-301-336-21-40-22-55-25-315l-3-272h130 131v146 146l83 76c165 153 289 278 310 312s22 44 22 321c-1 254-3 289-18 313-20 30-57 35-78 9z"/></g></svg>